<?xml version="1.0" standalone="no"?><!DOCTYPE svg PUBLIC "-//W3C//DTD SVG 1.1//EN" "http://www.w3.org/Graphics/SVG/1.1/DTD/svg11.dtd"><svg t="1552458537027" id='chocolate' class="icon" style="" viewBox="0 0 1024 1024" version="1.1" xmlns="http://www.w3.org/2000/svg" p-id="2115" xmlns:xlink="http://www.w3.org/1999/xlink" width="200" height="200"><defs><style type="text/css"></style></defs><path d="M173.746544 20.07161m90.027859 0l496.437812 0q90.02786 0 90.02786 90.027859l0 446.178502q0 90.02786-90.02786 90.02786l-496.437812 0q-90.02786 0-90.027859-90.02786l0-446.178502q0-90.02786 90.027859-90.027859Z" fill="#DABEAA" p-id="2116"></path><path d="M756.264799 666.417584h-488.409168a114.234221 114.234221 0 0 1-114.113792-114.113792V114.113791A114.234221 114.234221 0 0 1 267.855631 0.040143h488.409168a114.234221 114.234221 0 0 1 114.113791 114.113792v438.109714a114.234221 114.234221 0 0 1-114.113791 114.153935z m-488.409168-626.234221a74.050859 74.050859 0 0 0-73.970572 73.970572v438.109714a74.050859 74.050859 0 0 0 73.970572 74.010715h488.409168a74.050859 74.050859 0 0 0 73.970572-73.970572V114.113791a74.050859 74.050859 0 0 0-73.970572-73.930428z" fill="#6D2F2E" p-id="2117"></path><path d="M912.39516 481.156627v419.309306a101.696156 101.696156 0 0 1-0.602148 11.119672 103.810365 103.810365 0 0 1-102.860309 92.329404H215.080678a103.756841 103.756841 0 0 1-103.462457-103.462457V481.156627a103.770222 103.770222 0 0 1 103.462457-103.462458h593.852025a103.770222 103.770222 0 0 1 103.462457 103.462458z" fill="#DABEAA" p-id="2118"></path><path d="M912.39516 481.156627v419.309306a101.696156 101.696156 0 0 1-0.602148 11.119672H323.480752a103.770222 103.770222 0 0 1-103.475839-103.462457V388.827222a102.151112 102.151112 0 0 1 0.602149-11.133053h588.325641a103.770222 103.770222 0 0 1 103.462457 103.462458z" fill="#F5E6CD" p-id="2119"></path><path d="M810.832815 1024H213.167185A121.767765 121.767765 0 0 1 91.533231 902.366046v-423.109532a121.767765 121.767765 0 0 1 121.633954-121.633954h597.66563a121.767765 121.767765 0 0 1 121.633954 121.633954v423.109532a121.767765 121.767765 0 0 1-121.633954 121.633954z m-597.66563-626.234221a81.624546 81.624546 0 0 0-81.490735 81.490735v423.109532a81.624546 81.624546 0 0 0 81.490735 81.490735h597.66563a81.624546 81.624546 0 0 0 81.490735-81.490735v-423.109532a81.624546 81.624546 0 0 0-81.490735-81.490735z" fill="#6D2F2E" p-id="2120"></path><path d="M391.563652 397.765779a20.07161 20.07161 0 0 1-20.07161-20.07161V20.111753a20.07161 20.07161 0 1 1 40.143219 0v357.582416a20.07161 20.07161 0 0 1-20.071609 20.07161zM632.422967 397.765779a20.07161 20.07161 0 0 1-20.071609-20.07161V20.111753a20.07161 20.07161 0 0 1 40.143219 0v357.582416a20.07161 20.07161 0 0 1-20.07161 20.07161z" fill="#6D2F2E" p-id="2121"></path><path d="M850.240075 239.869116H173.759925a20.07161 20.07161 0 0 1 0-40.143219H850.240075a20.07161 20.07161 0 0 1 0 40.143219z" fill="#6D2F2E" p-id="2122"></path><path d="M387.201422 502.740297a66.784936 66.784936 0 0 0-33.332253 8.885033 66.999033 66.999033 0 0 0-100.358049 58.127381c0 47.663382 70.197109 107.945117 100.358049 107.945117 32.261767 0 100.358048-61.700128 100.358048-107.945117a67.012414 67.012414 0 0 0-67.025795-67.012414zM718.3696 502.740297a66.784936 66.784936 0 0 0-33.332253 8.885033 66.999033 66.999033 0 0 0-100.358048 58.127381c0 47.663382 70.197109 107.945117 100.358048 107.945117 32.261767 0 100.358048-61.700128 100.358048-107.945117a67.012414 67.012414 0 0 0-67.025795-67.012414z" fill="#E65257" p-id="2123"></path><path d="M576.383033 784.599221a26.534668 26.534668 0 0 1-26.494525-26.507906v-11.507722a80.406868 80.406868 0 0 1-15.749523 1.458536c-52.186185 0-65.567258-39.835455-68.885764-56.963228a19.69694 19.69694 0 0 1 19.375794-23.416878h98.538222a19.643415 19.643415 0 0 1 19.402556 16.244623 10.009043 10.009043 0 0 1 0.307765 2.462118v71.722551a26.548049 26.548049 0 0 1-26.494525 26.507906z m-16.45872-61.686747a10.049186 10.049186 0 0 1 10.035805 10.035805v25.143036a6.436296 6.436296 0 1 0 12.859211 0v-70.357682h-97.681833c3.666414 18.479262 15.200899 40.236887 49.001489 40.236887a52.520712 52.520712 0 0 0 21.623815-4.215038 10.049186 10.049186 0 0 1 4.161513-0.843008z" fill="#6D2F2E" p-id="2124"></path><path d="M678.039046 440.277448H478.219481a10.035805 10.035805 0 0 1 0-20.071609h199.819565a10.035805 10.035805 0 0 1 0 20.071609zM770.823406 439.340773h-49.964927a10.035805 10.035805 0 0 1 0-20.07161h49.964927a10.035805 10.035805 0 0 1 0 20.07161zM586.164598 175.961111a10.035805 10.035805 0 0 1-10.035805-10.035805V63.560097a10.035805 10.035805 0 0 1 20.071609 0v102.405353a10.035805 10.035805 0 0 1-10.035804 9.995661zM591.517027 315.833468a10.035805 10.035805 0 0 1-10.035805-10.035804v-51.517132a10.035805 10.035805 0 0 1 20.07161 0v51.517132a10.035805 10.035805 0 0 1-10.035805 10.035804zM343.967175 315.833468a10.035805 10.035805 0 0 1-10.035805-10.035804v-51.517132a10.035805 10.035805 0 0 1 20.071609 0v51.517132a10.035805 10.035805 0 0 1-10.035804 10.035804zM734.694509 70.959831h-48.840917a10.035805 10.035805 0 0 1 0-20.07161h48.840917a10.035805 10.035805 0 0 1 0 20.07161zM349.319604 70.959831h-48.840917a10.035805 10.035805 0 0 1 0-20.07161h48.840917a10.035805 10.035805 0 0 1 0 20.07161z" fill="#FFFFFF" p-id="2125"></path></svg>