<?xml version="1.0" standalone="no"?><!DOCTYPE svg PUBLIC "-//W3C//DTD SVG 1.1//EN" "http://www.w3.org/Graphics/SVG/1.1/DTD/svg11.dtd"><svg t="1552458433095" id='mushroom' class="icon" style="" viewBox="0 0 1024 1024" version="1.1" xmlns="http://www.w3.org/2000/svg" p-id="1670" xmlns:xlink="http://www.w3.org/1999/xlink" width="200" height="200"><defs><style type="text/css"></style></defs><path d="M776.695232 577.752626v180.772948a244.666836 244.666836 0 0 1-36.15459 128.199189c-43.472777 70.987667-121.728764 118.549653-210.544383 118.549653h-35.992518c-135.691915 0-246.71144-110.957189-246.71144-246.71144v-180.772949c0-77.931842 36.615872-147.722667 93.503249-193.015641a245.227855 245.227855 0 0 1 153.208191-53.695799h35.992518c135.679448-0.037401 246.698973 110.982123 246.698973 246.674039z" fill="#EEA450" p-id="1671"></path><path d="M776.695232 577.752626v180.772948a244.666836 244.666836 0 0 1-36.15459 128.199189 245.190454 245.190454 0 0 1-153.195724 53.720733h-35.992517c-135.691915 0-246.71144-110.957189-246.71144-246.71144v-180.772949a244.729171 244.729171 0 0 1 36.154589-128.186721 245.227855 245.227855 0 0 1 153.208191-53.695799h35.992518c135.679448-0.037401 246.698973 110.982123 246.698973 246.674039z" fill="#F4D162" p-id="1672"></path><path d="M529.996259 1023.975066h-35.992518a266.147649 266.147649 0 0 1-265.41209-265.387156v-180.772949a266.147649 266.147649 0 0 1 265.41209-265.461958h35.992518a266.147649 266.147649 0 0 1 265.41209 265.399623v180.772948a266.147649 266.147649 0 0 1-265.41209 265.449492z m-35.992518-674.220764c-125.718236 0-228.01079 102.230219-228.01079 227.998324v180.772948c0 125.817972 102.292555 228.048192 228.01079 228.048192h35.992518c125.718236 0 228.01079-102.230219 228.01079-227.998323v-180.772949c0-125.718236-102.230219-227.998323-228.01079-227.998323z" fill="#6D2F2E" p-id="1673"></path><path d="M486.161935 927.866193a54.057345 54.057345 0 0 1-50.429419-35.069952 9.350325 9.350325 0 0 1 17.45394-6.557695 35.219557 35.219557 0 0 0 45.342843 20.657985 9.350325 9.350325 0 0 1 6.557694 17.453939 53.845405 53.845405 0 0 1-18.925058 3.515723z" fill="#6D2F2E" p-id="1674"></path><path d="M964.125612 421.81414c0 72.533587-23.68749 140.379545-64.704249 198.226889-79.128683 111.630413-223.073819 186.233539-387.427597 186.233538C262.290222 806.274567 59.874388 634.153786 59.874388 421.839074c0-117.415147 61.886684-222.525266 159.454208-292.976848 78.866874-56.999581 181.047225-91.396309 292.66517-91.396309 249.703544-0.062335 452.131845 172.045979 452.131846 384.348223z" fill="#773D5A" p-id="1675"></path><path d="M964.125612 421.81414c0 72.533587-23.68749 140.379545-64.704249 198.226889-78.866874 57.024515-181.059692 91.421244-292.677637 91.421243C357.040182 711.462272 154.624347 539.341491 154.624347 327.026779c0-72.546054 23.625154-140.392012 64.704249-198.226888C298.19547 71.80031 400.375821 37.403581 511.993766 37.403581c249.703544 0 452.131845 172.108314 452.131846 384.410559z" fill="#96577F" p-id="1676"></path><path d="M512.006234 37.403581c249.691077 0 452.119378 172.120781 452.119378 384.435493S761.697311 806.274567 512.006234 806.274567 59.874388 634.153786 59.874388 421.81414 262.302689 37.403581 512.006234 37.403581m0-37.4013a555.907985 555.907985 0 0 0-188.652156 32.41446c-58.084218 20.894859-110.321367 50.865768-155.27773 89.089896-45.405178 38.64801-81.123419 83.704109-106.157356 134.033791a370.272867 370.272867 0 0 0 0 332.597292c25.033937 50.342149 60.752178 95.43565 106.157356 134.033791 44.956362 38.224128 97.243379 68.207504 155.27773 89.089896a565.146106 565.146106 0 0 0 377.291844 0c58.084218-20.882392 110.346301-50.865768 155.227861-89.089896 45.405178-38.64801 81.123419-83.691642 106.157356-134.033791a370.272867 370.272867 0 0 0 0-332.597292c-25.033937-50.329682-60.752178-95.43565-106.157356-134.033791-44.956362-38.224128-97.243379-68.195037-155.277729-89.089896A555.883051 555.883051 0 0 0 511.956365 0.002281z" fill="#6D2F2E" p-id="1677"></path><path d="M501.808146 297.143141c134.731949 0 245.514599 102.492028 258.654922 233.758123q1.24671-12.928383 1.24671-26.18091c0.062335-143.596057-116.330509-259.939033-259.901632-259.939033s-259.963967 116.342976-259.963968 259.926566q0 13.252527 1.24671 26.18091c13.202659-131.253628 123.985309-233.745656 258.717258-233.745656z" fill="#EEA450" p-id="1678"></path><path d="M592.481363 387.816358c0 134.731949-102.492028 245.527066-233.758123 258.66739q12.915916 1.24671 26.18091 1.24671c143.571123 0 259.963967-116.380378 259.963967-259.963968s-116.367911-259.914099-259.939033-259.914099q-13.277461 0-26.18091 1.24671C489.989335 142.30176 592.481363 253.096877 592.481363 387.816358z" fill="#EEA450" p-id="1679"></path><path d="M343.002227 861.32928a37.4013 24.9342 0 1 0 74.8026 0 37.4013 24.9342 0 1 0-74.8026 0Z" fill="#E65257" p-id="1680"></path><path d="M610.409053 861.32928a37.4013 24.9342 0 1 0 74.8026 0 37.4013 24.9342 0 1 0-74.8026 0Z" fill="#E65257" p-id="1681"></path><path d="M910.330076 360.33887a9.337858 9.337858 0 0 1-9.100983-7.268319c-20.433577-89.376639-93.141703-163.655621-194.486759-198.700638a9.350325 9.350325 0 1 1 6.108879-17.665881c52.012741 17.965091 98.40282 46.776559 134.2956 83.330096 36.516136 37.151958 61.512671 81.72184 72.30918 128.872412a9.362792 9.362792 0 0 1-9.125917 11.43233z" fill="#FFFFFF" p-id="1682"></path></svg>