<?xml version="1.0" standalone="no"?><!DOCTYPE svg PUBLIC "-//W3C//DTD SVG 1.1//EN" "http://www.w3.org/Graphics/SVG/1.1/DTD/svg11.dtd"><svg t="1545835617343" class="icon" style="" viewBox="0 0 1024 1024" version="1.1" xmlns="http://www.w3.org/2000/svg" p-id="956" xmlns:xlink="http://www.w3.org/1999/xlink" width="200" height="200"><defs><style type="text/css"></style></defs><path d="M468.96 112v96h-176a80 80 0 0 0-80 80v448a80 80 0 0 0 80 80h176v96h-352V112z m16-48h-384a32 32 0 0 0-32 32v832a32 32 0 0 0 32 32h384a32 32 0 0 0 32-32v-128a32 32 0 0 0-32-32h-192a32 32 0 0 1-32-32V288a32 32 0 0 1 32-32h192a32 32 0 0 0 32-32V96a32 32 0 0 0-32-32z" fill="" p-id="957"></path><path d="M932.96 512h-512a16 16 0 0 0-16 16 16 16 0 0 0 16 16h512a16 16 0 0 0 16-16 16 16 0 0 0-16-16z" fill="#0070FF" p-id="958"></path><path d="M950.4 515.04l-135.84-135.68a16 16 0 1 0-22.56 22.56l124.48 124.48-124.48 124.48a16 16 0 1 0 22.56 22.56l135.84-135.68a16 16 0 0 0 0-22.72z" fill="#0070FF" p-id="959"></path></svg>