<?xml version="1.0" standalone="no"?><!DOCTYPE svg PUBLIC "-//W3C//DTD SVG 1.1//EN" "http://www.w3.org/Graphics/SVG/1.1/DTD/svg11.dtd"><svg t="1552458514020" id='egg' class="icon" style="" viewBox="0 0 1171 1024" version="1.1" xmlns="http://www.w3.org/2000/svg" p-id="1797" xmlns:xlink="http://www.w3.org/1999/xlink" width="228.7109375" height="200"><defs><style type="text/css"></style></defs><path d="M1098.367157 900.292886c-42.031937 61.762073-106.19704 102.585469-181.02822 102.585469h-662.730235c-164.108645 0-276.924555-196.556569-217.481194-378.849542 68.676053-210.665584 206.168687-325.336464 326.348266-387.323383l0.295109-0.154581c96.360077-49.648556 201.643684-65.514172 303.695147-47.639005a491.033076 491.033076 0 0 1 132.981684 43.732326 68.394997 68.394997 0 1 1 115.542154 72.863788c87.127385 68.296627 170.221614 169.336288 218.872421 318.563013 32.265238 99.170638 13.617167 202.557116-36.495132 276.221915z" fill="#CEE0D7" p-id="1798"></path><path d="M1098.367157 900.292886a199.549816 199.549816 0 0 1-37.703673 3.555359H397.947303c-164.122697 0-276.924555-196.556569-217.495247-378.849542 41.905461-128.583156 109.443237-221.401926 183.023718-288.293273l0.295109-0.154581c96.360077-49.648556 201.643684-65.514172 303.695147-47.639005a491.033076 491.033076 0 0 1 132.981684 43.732326 68.394997 68.394997 0 1 1 115.542154 72.863788c87.127385 68.296627 170.221614 169.336288 218.872421 318.563013 32.265238 99.170638 13.617167 202.557116-36.495132 276.221915z" fill="#E8F3EE" p-id="1799"></path><path d="M873.90172 765.934027c-21.486737 43.732326-61.171856 74.479861-108.867072 74.479861H406.884886c-88.687246 0-149.662362-106.225145-117.551705-204.749354 26.995436-82.827227 73.664798-138.195274 122.104813-175.11199a365.653959 365.653959 0 0 1 54.440563-34.316947c76.573729-39.460274 163.588691-39.460274 240.148367 0 64.994218 33.473779 139.389762 95.460697 176.545376 209.386779a174.395297 174.395297 0 0 1-8.67058 130.311651z" fill="#EEA450" p-id="1800"></path><path d="M873.90172 765.934027a108.066062 108.066062 0 0 1-43.563692 9.106217H472.216371c-88.687246 0-149.662362-106.225145-117.537652-204.749354 14.291702-43.844748 34.092102-79.98856 56.759275-109.766451a365.653959 365.653959 0 0 1 54.440563-34.316948c76.573729-39.460274 163.588691-39.460274 240.148367 0 64.994218 33.473779 139.389762 95.460697 176.545376 209.386779a174.395297 174.395297 0 0 1-8.67058 130.339757z" fill="#F2CF5C" p-id="1801"></path><path d="M765.020595 850.981597H406.870833c-40.064544 0-77.88064-20.460883-103.765904-56.126899-32.672769-44.968973-41.778986-107.236947-23.791397-162.436361 17.425477-53.400655 44.378755-100.126228 80.100982-138.785492a365.752329 365.752329 0 0 1 101.615826-76.742363c79.38429-40.89366 170.432406-40.89366 249.816696 0a366.15986 366.15986 0 0 1 101.615825 76.742363c35.764386 38.659264 62.703611 85.39889 80.129088 138.799544 17.987589 55.199414 8.867319 117.439283-23.791397 162.436361-25.885265 35.708175-63.715413 56.112846-103.779957 56.112847zM585.945714 407.320523a251.179818 251.179818 0 0 0-115.232993 28.302347c-83.782817 43.170214-141.427419 111.579263-171.345838 203.33002-15.93588 48.889705-7.96794 103.878327 20.812202 143.521287 22.189377 30.578901 52.993124 47.428213 86.705801 47.428214h358.135709c33.72673 0 64.530476-16.863365 86.719853-47.428214 28.76609-39.64296 36.748082-94.631582 20.812203-143.521287-29.946525-91.750757-87.563021-160.159807-171.345839-203.259756a251.193871 251.193871 0 0 0-115.261098-28.372611z" fill="#6D2F2E" p-id="1802"></path><path d="M506.84248 579.481424a10.539603 10.539603 0 0 1-10.539603-10.539603v-22.105061a10.539603 10.539603 0 0 1 21.079206 0v22.105061a10.539603 10.539603 0 0 1-10.539603 10.539603zM665.063 579.481424a10.539603 10.539603 0 0 1-10.539603-10.539603v-22.105061a10.539603 10.539603 0 0 1 21.079206 0v22.105061a10.539603 10.539603 0 0 1-10.539603 10.539603zM605.802326 701.965663a33.417568 33.417568 0 0 1-17.861114-5.143326 33.572149 33.572149 0 0 1-51.433262-28.414769 10.539603 10.539603 0 0 1 21.079206 0 12.47889 12.47889 0 0 0 22.231535 7.855517 10.567709 10.567709 0 0 1 16.357464 0 12.47889 12.47889 0 0 0 22.175325-7.855517 10.539603 10.539603 0 0 1 21.079206 0 33.600254 33.600254 0 0 1-33.62836 33.558095z" fill="#6D2F2E" p-id="1803"></path><path d="M917.296778 1023.999719H254.608702a221.682982 221.682982 0 0 1-109.611871-28.878512c-32.152815-18.029747-60.272476-43.465323-83.614183-75.618138-29.103357-40.106703-48.833494-88.532665-57.040332-139.994033a348.312799 348.312799 0 0 1 12.731841-161.972619c32.321449-99.086321 82.29322-185.679699 148.580296-257.377104 53.007177-57.33544 116.413428-105.227396 188.462154-142.28464s148.706772-56.379849 227.514896-57.068437c72.934053-0.674535 144.209874 14.628969 212.014653 45.390557a89.488256 89.488256 0 0 1 149.142409 93.9711c98.678789 81.688949 170.038928 188.39189 212.042759 317.424735a348.11606 348.11606 0 0 1 12.788051 161.972619c-8.192785 51.475421-27.922921 99.887331-57.026278 139.994033-23.341707 32.152815-51.475421 57.616496-83.614184 75.618138a221.753246 221.753246 0 0 1-109.682135 28.822301z m-331.308906-820.824279a462.983679 462.983679 0 0 0-212.562712 52.12185c-154.580844 79.665346-261.058939 205.943842-316.272406 375.308235-29.328202 89.937945-14.671127 191.118134 38.279838 264.12245 40.753131 56.211216 97.287562 87.127385 159.17611 87.127385h662.688076c61.832337 0 118.408926-30.916169 159.176111-87.127385 52.936913-72.934053 67.60804-174.142347 38.265785-264.12245-41.371455-126.910873-112.647277-230.704883-211.831967-308.501205a21.079206 21.079206 0 0 1-4.215841-28.737985 47.301738 47.301738 0 0 0-38.687369-74.479861 47.456319 47.456319 0 0 0-41.287138 24.100559 21.079206 21.079206 0 0 1-27.684024 8.614369 462.070247 462.070247 0 0 0-205.044463-48.425962z" fill="#6D2F2E" p-id="1804"></path><path d="M1021.343739 93.591674m-72.498416 0a72.498416 72.498416 0 1 0 144.996832 0 72.498416 72.498416 0 1 0-144.996832 0Z" fill="#F6CD61" p-id="1805"></path><path d="M1021.343739 187.183349a93.591674 93.591674 0 1 1 93.591674-93.591675 93.690044 93.690044 0 0 1-93.591674 93.591675z m0-145.010884a51.433262 51.433262 0 1 0 51.433262 51.419209 51.475421 51.475421 0 0 0-51.433262-51.377051z" fill="#6D2F2E" p-id="1806"></path><path d="M432.081563 622.553268a42.158412 28.105608 0 1 0 84.316824 0 42.158412 28.105608 0 1 0-84.316824 0Z" fill="#E65257" p-id="1807"></path><path d="M657.629067 622.553268a42.158412 28.105608 0 1 0 84.316824 0 42.158412 28.105608 0 1 0-84.316824 0Z" fill="#E65257" p-id="1808"></path><path d="M747.328115 305.873331a10.441233 10.441233 0 0 1-4.623373-1.068013c-87.127385-42.579996-204.440192-36.944822-205.606575-36.888611a10.553656 10.553656 0 0 1-1.110171-21.079205c5.016851-0.267003 123.931678-5.944336 215.963491 38.996531a10.539603 10.539603 0 0 1-4.623372 20.011192zM741.257303 517.199397a10.511497 10.511497 0 0 1-7.462039-3.091617c-35.708175-35.708175-117.158227-61.832337-118.043553-62.043129a10.539603 10.539603 0 0 1 6.36592-20.09551c3.541307 1.124224 87.225754 27.936974 126.475236 67.242667a10.539603 10.539603 0 0 1-7.447986 17.987589zM781.307795 563.57365a10.52555 10.52555 0 0 1-7.953887-3.611571l-18.971286-21.781846a10.539603 10.539603 0 0 1 15.893721-13.842012l18.971286 21.781846a10.52555 10.52555 0 0 1-7.939834 17.453583z" fill="#FFFFFF" p-id="1809"></path></svg>