<?xml version="1.0" standalone="no"?><!DOCTYPE svg PUBLIC "-//W3C//DTD SVG 1.1//EN" "http://www.w3.org/Graphics/SVG/1.1/DTD/svg11.dtd"><svg t="1552458523805" id='pineapple'  class="icon" style="" viewBox="0 0 1024 1024" version="1.1" xmlns="http://www.w3.org/2000/svg" p-id="1924" xmlns:xlink="http://www.w3.org/1999/xlink" width="200" height="200"><defs><style type="text/css"></style></defs><path d="M468.949311 162.13534s-22.761828-92.63699 24.33973-144.448705c0 0 36.892296 29.049886 36.892296 142.882578z" fill="#81CD68" p-id="1925"></path><path d="M468.949311 179.798424a17.663084 17.663084 0 0 1-17.144967-13.447495c-1.024459-4.156713-24.410383-102.44589 28.414015-160.545662a17.663084 17.663084 0 0 1 23.998244-1.990041c4.462873 3.532617 43.639594 37.77545 43.639594 156.753987a17.663084 17.663084 0 0 1-17.21562 17.663085l-61.232026 1.566126z m24.433933-130.907006c-15.932102 32.535402-12.870501 73.996548-9.785348 95.19225l28.614196-0.730075c-1.778084-48.914969-11.021765-78.176812-18.828848-94.485726z" fill="#6D2F2E" p-id="1926"></path><path d="M524.83531 188.912576s111.371635-83.605266 191.467836-90.317239c0 0-129.529286-111.300983-223.673527 44.652278z" fill="#81CD68" p-id="1927"></path><path d="M524.83531 206.57566a18.063448 18.063448 0 0 1-2.743666-0.211957 17.663084 17.663084 0 0 1-11.681186-7.265415l-32.217466-45.676736a17.663084 17.663084 0 0 1-0.682973-19.311639c31.640472-52.388709 70.840744-82.663235 116.505705-89.963977 71.688572-11.481005 131.295594 38.858786 133.791977 41.060783a17.663084 17.663084 0 0 1-10.032632 31.004601c-74.184955 6.170304-181.246797 86.030997-182.318357 86.843499a17.663084 17.663084 0 0 1-10.621402 3.520841z m-10.974663-63.857938l15.166702 21.490087c26.553504-18.381383 84.441319-55.697593 140.609928-73.619736-19.040805-8.690238-44.004631-15.802573-70.275526-11.528107-32.135038 5.228273-60.855214 26.624156-85.501104 63.657756z" fill="#6D2F2E" p-id="1928"></path><path d="M475.673058 188.912576s-111.371635-83.605266-191.45606-90.317239c0 0 129.529286-111.300983 223.732403 44.652278z" fill="#81CD68" p-id="1929"></path><path d="M475.673058 206.57566a17.663084 17.663084 0 0 1-10.59785-3.532616c-1.295293-0.977357-108.333585-80.68497-182.318358-86.843499a17.663084 17.663084 0 0 1-10.091509-30.992826c2.496383-2.154896 62.09163-52.541789 133.803752-41.060783 45.664961 7.300742 84.853458 37.575268 116.49393 89.963977a17.663084 17.663084 0 0 1-0.682972 19.311639l-32.205691 45.676736a17.663084 17.663084 0 0 1-11.692962 7.265415 18.063448 18.063448 0 0 1-2.70834 0.211957z m-144.837292-115.987587c56.168609 17.922143 114.056424 55.238353 140.609927 73.619736l15.166702-21.490087c-24.645891-37.0336-53.366066-58.429483-85.489328-63.657756-26.235568-4.274466-51.21117 2.826094-70.251975 11.528107z" fill="#6D2F2E" p-id="1930"></path><path d="M839.42662 508.202266v145.426062q-0.176631 14.377751-1.542576 28.449342a335.598605 335.598605 0 0 1-10.256365 56.074405c-0.15308 0.553443-0.30616 1.083336-0.45924 1.648555a336.210925 336.210925 0 0 1-22.514545 58.876948q-3.685697 7.477372-7.724655 14.719237a340.732675 340.732675 0 0 1-25.905858 39.74194q-6.817951 9.031724-14.22467 17.592432c-2.519933 2.920297-5.098744 5.817042-7.724656 8.654911-2.178447 2.355078-4.39222 4.710156-6.64132 6.971031q-7.359619 7.512699-15.178477 14.577932a340.579595 340.579595 0 0 1-51.599757 38.5173q-5.640412 3.414863-11.398578 6.617769-3.850552 2.178447-7.771757 4.192039-10.409444 5.475556-21.195701 10.185712a335.598605 335.598605 0 0 1-46.336158 16.379567c-0.694748 0.176631-1.389496 0.376812-2.084244 0.541668q-9.255456 2.472832-18.72287 4.415771-12.69387 2.614137-25.741002 4.227365a337.682849 337.682849 0 0 1-82.722112 0.188406q-13.070683-1.566127-25.835205-4.144937-9.184804-1.836961-18.204752-4.192039l-1.719207-0.43569a336.04607 336.04607 0 0 1-45.688512-15.708369q-11.77539-4.992765-23.067988-10.868685c-1.177539-0.61232-2.355078-1.248191-3.532617-1.884062q-7.948388-4.23914-15.661268-8.890419a342.451882 342.451882 0 0 1-51.376025-38.010958q-8.054367-7.182988-15.625942-14.895868c-2.131346-2.143121-4.227365-4.345119-6.299834-6.547117-2.755441-2.955623-5.463781-5.946572-8.113243-9.008173a341.227241 341.227241 0 0 1-43.722022-63.398698c-1.483699-2.778992-2.932072-5.569759-4.333343-8.395852a334.668349 334.668349 0 0 1-23.951143-63.269169l-0.176631-0.659422a336.04607 336.04607 0 0 1-9.514514-52.306281q-1.413047-14.012714-1.66033-28.260935V508.261143v-2.767217a337.741726 337.741726 0 0 1 3.638595-46.854275q1.884062-12.799849 4.710156-25.246435a336.293353 336.293353 0 0 1 22.973785-67.119721q4.710156-10.044407 9.997306-19.770879 2.355078-4.380445 4.922113-8.678463a342.663839 342.663839 0 0 1 80.237505-93.237535q4.451097-3.603269 9.019948-7.065234 7.807083-5.887695 15.955653-11.351475 10.209263-6.817951 20.936643-12.952929 11.375026-6.464689 23.303496-12.093325 10.303466-4.851461 20.971969-8.996398a335.233568 335.233568 0 0 1 95.65149-21.961101l2.131346-0.164856q12.222854-0.883154 24.728318-0.894929c8.819767 0 17.568881 0.353262 26.223793 1.012683 0.930256 0.070652 1.860512 0.164855 2.790767 0.223733a338.436474 338.436474 0 0 1 37.92853 5.46378 334.892081 334.892081 0 0 1 56.722052 16.779931q10.597851 4.203814 20.889541 9.078825 13.376843 6.35871 26.094264 13.812532 9.420312 5.522658 18.452035 11.657636 12.870501 8.678462 24.869623 18.487362a342.958223 342.958223 0 0 1 79.801816 93.684999c1.577902 2.73189 3.120478 5.475556 4.627728 8.242773q5.404904 9.96198 10.162161 20.336098a335.198242 335.198242 0 0 1 22.52632 66.872438c1.860512 8.313425 3.414863 16.77993 4.639504 25.317088a339.67289 339.67289 0 0 1 3.414863 43.769123c-0.105979 1.401271-0.094203 2.88497-0.094203 4.356894z" fill="#F6A459" p-id="1931"></path><path d="M839.42662 508.202266v145.426062q-0.176631 14.377751-1.542576 28.449342a335.598605 335.598605 0 0 1-10.256365 56.074405c-0.15308 0.553443-0.30616 1.083336-0.45924 1.648555a336.210925 336.210925 0 0 1-22.514545 58.876948q-3.685697 7.477372-7.724655 14.719237a340.732675 340.732675 0 0 1-25.905858 39.74194q-13.600575 10.279915-28.260935 19.193885c-3.756349 2.27265-7.548025 4.486423-11.398577 6.594218-2.567035 1.448373-5.157621 2.86142-7.771757 4.21559q-10.409444 5.452005-21.195701 10.185712a335.469075 335.469075 0 0 1-46.336159 16.356016c-0.694748 0.200182-1.389496 0.376812-2.084244 0.541668q-9.255456 2.472832-18.722869 4.415771-12.69387 2.614137-25.741002 4.250916a340.402964 340.402964 0 0 1-42.097018 2.625911 335.598605 335.598605 0 0 1-40.625094-2.461056c-8.713788-1.024459-17.333374-2.42573-25.835205-4.144937q-9.184804-1.801635-18.204752-4.192039c-0.576994-0.117754-1.177539-0.270834-1.719207-0.423914a334.479943 334.479943 0 0 1-45.712063-15.73192q-11.77539-4.992765-23.067988-10.868685c-1.177539-0.61232-2.355078-1.177539-3.532617-1.860512-5.298925-2.826094-10.527198-5.817042-15.661268-8.902194a343.193731 343.193731 0 0 1-51.387801-37.952081q-8.054367-7.230089-15.625942-14.895868-3.191131-3.238232-6.299833-6.558892-4.133162-4.427547-8.113244-8.996398a341.392096 341.392096 0 0 1-43.67492-63.457574c-1.483699-2.755441-2.932072-5.557984-4.333343-8.372302a334.892081 334.892081 0 0 1-23.951143-63.29272l-0.176631-0.635871a336.552411 336.552411 0 0 1-9.514514-52.306281q-1.413047-14.012714-1.66033-28.331587V441.082545v-2.755441a338.365821 338.365821 0 0 1 3.638595-46.877826q1.895838-12.776298 4.710156-25.246436a336.081396 336.081396 0 0 1 22.973785-67.119721q4.710156-10.079734 9.997306-19.770879 2.355078-4.380445 4.922113-8.690237a341.910214 341.910214 0 0 1 22.125957-33.171273q7.807083-5.887695 15.955653-11.351476 10.209263-6.817951 20.936643-12.952928 11.375026-6.464689 23.303496-12.093325 10.303466-4.851461 20.971969-8.996398a335.233568 335.233568 0 0 1 95.65149-21.961102l2.131345-0.164855q12.222854-0.883154 24.728318-0.89493c8.819767 0 17.568881 0.353262 26.223793 1.012684 0.930256 0.070652 1.860512 0.164855 2.790768 0.223732a338.436474 338.436474 0 0 1 37.92853 5.463781 334.892081 334.892081 0 0 1 56.722051 16.77993q10.597851 4.203814 20.889542 9.078826 13.376843 6.35871 26.094263 13.812532 9.420312 5.522658 18.452036 11.657635 12.870501 8.678462 24.869623 18.487362a342.958223 342.958223 0 0 1 79.801815 93.685c1.577902 2.73189 3.120478 5.475556 4.627728 8.242773q5.404904 9.96198 10.162162 20.336098a335.198242 335.198242 0 0 1 22.52632 66.872438c1.860512 8.313425 3.414863 16.77993 4.639503 25.317087a339.67289 339.67289 0 0 1 3.414863 43.769124c-0.094203 1.471924-0.082428 2.955623-0.082427 4.427546z" fill="#F7CE58" p-id="1932"></path><path d="M500.260072 169.023943c186.533947 0 339.131222 152.632601 339.131222 339.131222v141.304675c0 186.533947-152.620825 339.131222-339.131222 339.131222-186.545723 0-339.131222-152.620825-339.131222-339.131222v-141.304675c0-186.533947 152.620825-339.131222 339.131222-339.131222m0-35.326169a370.006293 370.006293 0 0 0-145.50849 29.615105A377.77805 377.77805 0 0 0 155.335359 362.693776a370.147598 370.147598 0 0 0-29.568004 145.496715v141.304675a370.182924 370.182924 0 0 0 29.568004 145.496715A377.77805 377.77805 0 0 0 354.751582 994.431655a372.785285 372.785285 0 0 0 291.005204 0 377.77805 377.77805 0 0 0 199.416224-199.416223 370.182924 370.182924 0 0 0 29.568003-145.496715v-141.304676a370.147598 370.147598 0 0 0-29.568003-145.496714 377.77805 377.77805 0 0 0-199.416224-199.404448 369.994518 369.994518 0 0 0-145.496714-29.579779z" fill="#6D2F2E" p-id="1933"></path><path d="M839.42662 579.455149v-68.768276l-12.69387 12.682095-86.73752-86.749296 68.827152-68.803601q-4.710156-10.350567-10.162161-20.336098c-1.50725-2.778992-3.049826-5.522658-4.627728-8.242773l-75.727531 75.739306-86.725745-86.808172 82.663235-82.627909q-11.987347-9.785349-24.869622-18.487362l-79.472105 79.460329-86.761071-86.678643 44.063508-44.063508a338.436474 338.436474 0 0 0-37.92853-5.463781l-27.825246 27.837021-28.001876-28.013651a338.460024 338.460024 0 0 0-38.140487 5.228273l44.452096 44.475646-86.725745 86.725745-80.449462-80.496564q-12.952929 8.654911-24.975602 18.41671l83.734796 83.687694-86.73752 86.749295-77.234781-77.246556q-2.531709 4.286242-4.922112 8.678462-5.310701 9.714696-9.997306 19.77088l70.463931 70.452156-86.749295 86.749295-15.072499-14.990071v73.525533l15.072499-15.084274 86.749295 86.73752-86.749295 86.73752-3.673922-3.673921a334.668349 334.668349 0 0 0 23.951143 63.269168c1.401271 2.826094 2.849644 5.616861 4.333343 8.395853l62.138731 62.138731-10.268139 10.279915c2.072469 2.201998 4.168488 4.403996 6.299833 6.547117q7.583351 7.689329 15.625942 14.895868l10.067958-10.067958 56.969335 56.969335c1.177539 0.635871 2.355078 1.271742 3.532617 1.884062q11.292599 5.887695 23.067989 10.868685a336.04607 336.04607 0 0 0 45.688511 15.70837l1.719207 0.435689 85.854366-85.866141 85.371575 85.371575c0.694748-0.164855 1.389496-0.365037 2.084244-0.541668a335.598605 335.598605 0 0 0 46.312607-16.356016q10.833358-4.710156 21.195702-10.185712 3.921205-2.013592 7.771757-4.192039l54.060814-54.072589 8.93752 8.93752q7.807083-7.065234 15.178478-14.577932c2.249099-2.355078 4.462873-4.615953 6.641319-6.971031l-9.06705-9.06705 56.945785-56.945784q4.027183-7.241865 7.724655-14.719237a336.210925 336.210925 0 0 0 22.514545-58.876948l-0.412138 0.412138-86.73752-86.73752 86.73752-86.73752z m-142.847252-142.835477l-86.725745 86.749296-86.713969-86.749296 86.749295-86.713969z m-281.902828 108.439564l86.73752-86.749296 86.831723 86.749296-86.749295 86.73752z m65.047252 108.427787l-86.73752 86.737521-86.725744-86.737521 86.725744-86.73752z m130.129831-86.73752l86.725745 86.73752-86.725745 86.737521-86.749295-86.737521z m-108.404237-325.271588l86.796397 86.690419-86.749295 86.749295-86.784622-86.749295z m-108.416012 108.427788l86.725745 86.713969-86.725745 86.749296-86.73752-86.749296zM197.856291 545.059236l86.749295-86.749296 86.73752 86.749296-86.73752 86.73752z m0 216.855575l86.749295-86.73752 86.73752 86.73752-86.73752 86.725745z m195.177083 195.177084l-86.73752-86.737521 86.73752-86.749295 86.725745 86.749295z m21.678492-195.177084l86.73752-86.73752 86.796397 86.73752-86.796397 86.725745z m195.177083 195.177084l-86.749295-86.737521 86.749295-86.749295 86.690419 86.749295z m195.153533-195.177084l-86.73752 86.725745-86.725745-86.725745 86.725745-86.73752z m-86.73752-130.118055l-86.725745-86.73752 86.725745-86.749296 86.73752 86.749296z" fill="#F6A459" p-id="1934"></path><path d="M440.170259 337.930132v78.800907c0 2.625912-0.070652 5.251824-0.200182 7.830634a153.83369 153.83369 0 0 1-5.487332 33.795369 156.989495 156.989495 0 0 1-108.627969 108.627969 153.951444 153.951444 0 0 1-33.795368 5.499107c-2.590586 0.117754-5.216498 0.200182-7.84241 0.200182a154.504887 154.504887 0 0 1-54.296321-9.820675 150.724987 150.724987 0 0 1-18.369608-8.242773 153.880792 153.880792 0 0 1-19.02903-11.916694 157.119024 157.119024 0 0 1-22.019979-19.535372 5.404904 5.404904 0 0 1-0.435689-0.45924 155.77663 155.77663 0 0 1-35.467474-62.020977l-0.565218-1.990041a154.257604 154.257604 0 0 1-5.769941-41.943938v-78.824458a16.108733 16.108733 0 0 1 16.049856-16.061632h279.783258a16.108733 16.108733 0 0 1 16.073407 16.061632z" fill="#F7E5CD" p-id="1935"></path><path d="M273.418966 321.856725L128.263738 466.988402v-72.489298l72.665929-72.642379h72.489299zM437.320614 328.827756L211.551069 554.597301a153.880792 153.880792 0 0 1-19.02903-11.916694 157.119024 157.119024 0 0 1-22.019979-19.535371l201.288511-201.276736h52.306281a16.049856 16.049856 0 0 1 13.223762 6.959256zM439.970077 424.561673a153.83369 153.83369 0 0 1-5.487332 33.795369 156.989495 156.989495 0 0 1-108.627969 108.627969 153.951444 153.951444 0 0 1-33.795368 5.499107z" fill="#78D264" p-id="1936"></path><path d="M428.394869 321.856725a11.77539 11.77539 0 0 1 11.77539 11.77539v83.087149c0 85.783714-70.181322 155.95326-155.953261 155.95326C198.433285 572.672524 128.263738 502.502978 128.263738 416.719264v-83.087149a11.77539 11.77539 0 0 1 11.775389-11.77539h288.355742m0-17.663084H140.039127a29.438474 29.438474 0 0 0-29.438474 29.438474v83.087149a171.50855 171.50855 0 0 0 13.694779 67.461207 175.041167 175.041167 0 0 0 92.460359 92.448584 172.874495 172.874495 0 0 0 134.922414 0 175.076493 175.076493 0 0 0 92.436809-92.448584 171.520326 171.520326 0 0 0 13.718329-67.461207v-83.087149a29.438474 29.438474 0 0 0-29.438474-29.438474z" fill="#6D2F2E" p-id="1937"></path><path d="M852.874115 337.930132v78.800907c0 2.625912-0.070652 5.251824-0.200182 7.830634a153.83369 153.83369 0 0 1-5.487331 33.795369 156.989495 156.989495 0 0 1-108.62797 108.627969 153.951444 153.951444 0 0 1-33.795368 5.499107c-2.590586 0.117754-5.216498 0.200182-7.84241 0.200182a154.504887 154.504887 0 0 1-54.296321-9.820675 150.724987 150.724987 0 0 1-18.369608-8.242773 153.880792 153.880792 0 0 1-19.02903-11.916694 157.119024 157.119024 0 0 1-22.019978-19.535372 5.404904 5.404904 0 0 1-0.43569-0.45924 155.77663 155.77663 0 0 1-35.467473-62.020977l-0.565219-1.990041a154.257604 154.257604 0 0 1-5.769941-41.943938v-78.824458a16.108733 16.108733 0 0 1 16.073407-16.061632h279.759707a16.108733 16.108733 0 0 1 16.073407 16.061632z" fill="#F7E5CD" p-id="1938"></path><path d="M686.134597 321.856725L540.967594 466.988402v-72.489298l72.665929-72.642379h72.501074zM850.02447 328.827756L624.254925 554.597301a153.880792 153.880792 0 0 1-19.02903-11.916694 157.119024 157.119024 0 0 1-22.019978-19.535371l201.28851-201.276736h52.306281a16.049856 16.049856 0 0 1 13.223762 6.959256zM852.673933 424.561673a153.83369 153.83369 0 0 1-5.487331 33.795369 156.989495 156.989495 0 0 1-108.62797 108.627969 153.951444 153.951444 0 0 1-33.795368 5.499107z" fill="#955679" p-id="1939"></path><path d="M841.098725 321.856725a11.77539 11.77539 0 0 1 11.77539 11.77539v83.087149c0 85.783714-70.181322 155.95326-155.953261 155.95326s-155.95326-70.169547-155.95326-155.95326v-83.087149a11.77539 11.77539 0 0 1 11.77539-11.77539h288.355741m0-17.663084H552.742984a29.438474 29.438474 0 0 0-29.438475 29.438474v83.087149a171.720507 171.720507 0 0 0 13.706554 67.461207 175.158921 175.158921 0 0 0 92.448584 92.448584 172.874495 172.874495 0 0 0 134.922415 0 175.158921 175.158921 0 0 0 92.448584-92.448584 171.720507 171.720507 0 0 0 13.706553-67.461207v-83.087149a29.438474 29.438474 0 0 0-29.438474-29.438474z" fill="#6D2F2E" p-id="1940"></path><path d="M567.968562 321.8685h-146.014831a8.831542 8.831542 0 0 1 0-17.663084h146.014831a8.831542 8.831542 0 0 1 0 17.663084zM530.546374 366.614981h-80.072649a8.831542 8.831542 0 0 1 0-17.663084h80.072649a8.831542 8.831542 0 0 1 0 17.663084zM471.669426 592.702462a8.831542 8.831542 0 1 1 0-17.663084 30.451158 30.451158 0 0 0 30.415831-30.427607 8.831542 8.831542 0 0 1 17.663085 0 48.137793 48.137793 0 0 1-48.078916 48.090691z" fill="#6D2F2E" p-id="1941"></path><path d="M871.290824 142.117178a41.920387 41.920387 0 0 0-20.948418 5.581534 42.097018 42.097018 0 0 0-63.045436 36.503708c0 29.944816 44.098834 67.814469 63.045436 67.814469 20.265446 0 63.045436-38.764583 63.045436-67.814469A42.108793 42.108793 0 0 0 871.290824 142.117178z" fill="#FF4A4F" p-id="1942"></path><path d="M176.060044 601.922592a35.326169 23.550779 0 1 0 70.652338 0 35.326169 23.550779 0 1 0-70.652338 0Z" fill="#E65257" p-id="1943"></path><path d="M739.288706 601.922592a35.326169 23.550779 0 1 0 70.652338 0 35.326169 23.550779 0 1 0-70.652338 0Z" fill="#E65257" p-id="1944"></path><path d="M751.48801 834.510088a8.831542 8.831542 0 0 1-7.68933-13.15311 213.735097 213.735097 0 0 0 27.212926-104.2593v-73.242923a8.831542 8.831542 0 0 1 17.663084 0v73.290025a231.492385 231.492385 0 0 1-29.438474 112.902436 8.819767 8.819767 0 0 1-7.748206 4.462872zM706.929936 890.737574a8.831542 8.831542 0 0 1-5.958348-15.308007 218.763189 218.763189 0 0 0 28.260936-31.416739 8.831542 8.831542 0 1 1 14.212895 10.480097 235.590221 235.590221 0 0 1-30.557136 33.971999 8.819767 8.819767 0 0 1-5.958347 2.27265z" fill="#FFFFFF" p-id="1945"></path></svg>